PathFileType	4	(X/Y/Z)	OpenSim_Sub06_CSStiffKnee_Accel.trc
DataRate	CameraRate	NumFrames	NumMarkers	Units	OrigDataRate	OrigDataStartFrame	OrigNumFrames
100	100	38	8	m	100	3583	7164
Frame#	Time	torso_imu_offset_imu	pelvis_imu_offset_imu	tibia_r_imu_offset_imu	femur_r_imu_offset_imu	tibia_l_imu_offset_imu	femur_l_imu_offset_imu	toes_r_imu_offset_imu	toes_l_imu_offset_imu
				X1	Y1	Z1	X2	Y2	Z2	X3	Y3	Z3	X4	Y4	Z4	X5	Y5	Z5	X6	Y6	Z6	X7	Y7	Z7	X8		Y8	Z8	

3583	35.82000000	15.55629235	0.61591058	5.39171408	13.25134132	3.80706770	10.67006099	28.05044866	-4.81990273	6.80535035	28.91687450	-4.73656082	-0.50502686	15.18403388	7.82393178	1.69528412	8.52276321	4.19331189	-3.09151105	34.86356691	-25.50204596	11.18122992	3.80914927	4.19729635	13.35619211
3584	35.83000000	13.55153977	0.45321088	7.38737808	20.45143636	6.80407345	10.29354054	25.05836025	-5.41682580	7.20684404	30.40558352	-5.40485417	-5.82086609	15.11661598	7.49433370	3.70490083	10.00268578	4.85168648	-2.43909106	-8.55064822	9.15599931	13.90750837	3.84892389	4.62427945	13.49848644
3585	35.84000000	12.72134544	-1.16242189	8.21679959	17.79559316	8.78813280	12.82876943	14.76234462	-2.74980643	8.87215887	19.09891685	-1.09848188	-2.62176746	12.93290925	4.61199508	5.95797439	10.58261202	4.30504801	-1.97483825	9.99466312	-1.77941200	9.43950962	3.60079213	3.97924403	14.16681275
3586	35.85000000	12.71461907	-3.10150822	7.80418041	10.80128854	5.00147233	10.88151207	7.06946335	0.81060316	8.37818204	9.64786325	2.04255277	1.06881727	11.88126741	1.28917560	7.32279281	10.91281971	4.45008906	-1.41790645	4.94922588	0.88636350	9.64590328	2.95118417	2.62245018	15.13105434
3587	35.86000000	11.61439741	-4.33049768	6.43764188	8.21142649	0.77962808	7.51759658	4.02606248	4.38762815	1.44181251	3.98639520	2.26394192	0.70177231	12.55604327	-0.82137226	7.84215887	11.49858997	5.44477277	-1.05570618	6.12904764	-2.22247090	8.14278903	3.39885785	1.74647923	15.90843112
3588	35.87000000	10.37150109	-4.39899453	5.28099016	7.50838810	-2.19011774	5.88208458	2.22893998	6.50994409	-3.96316964	2.25110312	2.08924258	0.40314274	13.02865989	-1.99700442	7.87399464	13.29552133	4.89059910	-0.26215893	5.27832076	-3.54682842	8.07833197	4.45052487	-0.80338904	15.32107845
3589	35.88000000	10.07093885	-3.53659772	4.77624880	7.02515097	-3.86158955	4.84736134	3.06012245	6.21263476	-5.02453061	2.43837208	2.47548910	0.41493054	13.42417263	-2.86857294	7.03726304	14.06811741	4.41203945	0.65219407	4.75507166	-3.16574730	8.35219385	4.90547550	-2.03346819	14.51965555
3590	35.89000000	9.46870500	-2.67566737	4.45243838	6.80582830	-4.02786769	4.30657584	7.09752667	5.32641938	-3.68369412	3.08524528	2.23771867	0.86678848	13.53153886	-3.74683903	4.98541409	14.19343200	4.02714174	1.86677428	5.23654339	-4.29094157	7.42313970	5.33736396	-2.30584894	13.97914399
3591	35.90000000	9.46951652	-1.86199806	4.34837785	7.57536834	-3.50464241	4.23950272	10.60966449	6.94301223	-3.24821317	4.65821747	1.13224556	0.66606896	12.93218375	-4.37785481	2.42658834	13.95344738	3.41300004	2.77847616	5.71186496	-3.69377962	7.73199290	5.14738419	0.26638835	13.89043378
3592	35.91000000	9.71059748	-0.86406144	4.43923478	8.44184023	-2.66955341	4.68019623	10.80214812	11.28627821	-3.43107671	7.52760697	-0.49361588	-0.73992035	11.83594425	-4.58960087	1.22498935	12.92321462	2.63813100	3.11886274	5.56319341	-3.22785182	8.00825224	4.87013243	3.64079173	15.27079413
3593	35.92000000	9.99604458	-0.10666024	4.53338763	9.04886253	-1.18790103	5.28229540	9.73362377	13.62806725	-1.78758484	11.32174108	-2.30948662	-2.67499393	10.19418888	-4.67312120	1.36004212	12.11174361	1.58851932	3.51950193	5.23522409	-3.03658318	8.19810078	5.49351448	3.73561935	14.49083253
3594	35.93000000	9.89096029	0.32317178	4.73587073	8.82342235	0.40494589	5.51821996	9.61149544	12.41783214	0.60845902	14.28013204	-4.05376519	-3.85469272	8.22188803	-5.03115097	2.09905534	11.91059638	0.47310799	3.38890477	4.66410613	-2.45418541	8.75913968	7.73317631	3.42127989	13.01811778
3595	35.94000000	9.42403575	0.24845194	5.02416550	8.51228845	1.77943189	5.61013459	10.22550046	8.84030513	2.62252878	13.48110038	-5.79824465	-3.95662903	6.62507645	-5.77845788	3.04252229	11.31006266	-1.63016747	2.85470789	4.41424715	-1.68506460	9.17720863	8.29599929	2.96573363	13.22529986
3596	35.95000000	9.05781660	-0.35100590	5.25397676	8.54611781	2.68028195	5.95424188	10.14810435	5.34207195	3.18517087	10.06688757	-5.44178737	-3.12213465	5.50411555	-6.52862604	3.60316323	10.66036712	-3.77770836	1.93574666	3.93600419	-1.64361824	9.20560186	3.81995171	3.36482189	18.18830990
3597	35.96000000	8.81573815	-1.09877489	5.44800429	8.83822125	3.15850978	6.59976342	9.55836856	3.53870291	2.76934000	8.37670583	-2.99540088	-1.57082026	4.96174642	-7.56044027	3.10656842	10.09762962	-4.41646071	0.41843884	4.33024225	-1.61612899	9.07485869	6.33768782	3.85122749	23.81559439
3598	35.97000000	8.61187864	-1.58638839	5.58828740	9.14521561	3.36964081	6.88622721	9.55570098	1.69856618	2.02761257	8.25889299	-1.17005454	-0.37629346	4.31181603	-8.65390846	2.01859623	9.53845195	-2.79157692	-1.70978880	4.41714005	-1.83892194	8.75935550	6.20819968	1.78058212	19.69115517
3599	35.98000000	8.60191861	-1.83329357	5.57945243	9.02412965	2.96422360	6.38024300	10.28128565	-1.67097953	1.60322067	8.59087152	-0.75870603	-0.24594446	3.41345499	-8.27042083	1.69328101	9.19840923	0.04500622	-3.13250986	4.52365454	-2.46101205	8.50391608	-10.08096422	5.17189490	13.49587606
3600	35.99000000	8.73909784	-1.98608636	5.66154020	8.36880534	2.15280199	5.60001766	10.62540179	-4.91698415	1.53312551	8.94535996	-1.00627006	-0.19338583	2.96266782	-6.72712550	2.29192981	9.60674273	2.23939699	-3.32999919	4.81479191	-2.47389282	8.43233580	-8.19357190	3.52828304	11.76693205
3601	36	8.59521149	-1.86685691	5.81918333	7.66585917	1.82787675	5.10640220	10.44814161	-6.01098669	1.52242059	9.09812200	-1.11033085	-0.02421459	3.41595547	-4.56798461	3.35286958	9.65451175	3.74167423	-2.25302383	4.12934095	-2.71723733	8.41992166	-4.08875161	1.95817026	12.93868819
3602	36.01000000	8.50408543	-1.72848501	5.81124897	7.51614998	1.72293820	4.94592753	10.53276406	-4.48928304	1.21405853	9.36247421	-0.78294807	-0.03969791	3.31108556	-2.72670702	4.42115288	9.22117237	4.38093381	-0.64369869	4.16985696	-2.79522318	8.60321203	-1.65469759	2.01279933	14.73303273
3603	36.02000000	8.68897969	-1.58317063	5.69727814	7.58081508	1.95704569	5.08575076	10.68172603	-1.70868348	0.77421768	9.30452242	-0.29953784	-0.14252849	3.10107023	-2.03857495	4.84842357	9.21310426	4.36890850	0.50706348	4.33681050	-2.66788688	8.57815122	-0.94515536	1.86492521	14.90608709
3604	36.03000000	8.87955696	-1.45690036	5.52769281	7.85589429	2.09548724	5.39111523	10.39347893	1.03819704	0.63469697	8.98220540	0.22806584	-0.13321219	3.61684619	-2.33641194	4.50952273	8.96372061	3.24764869	1.65648753	4.32459191	-2.68097383	8.51018776	-1.24136048	1.62605892	13.70770068
3605	36.04000000	8.85399888	-1.38848481	5.35806930	8.03100936	2.25235932	5.46376993	9.93012570	3.18940883	1.05653396	8.70526196	0.61592170	-0.21490956	4.51192028	-3.09709527	3.67398287	8.83206606	3.06601635	1.94301061	4.38479812	-2.52443748	8.58192456	-0.81381259	1.27971356	12.69877932
3606	36.05000000	8.66059911	-1.42514791	5.23848904	7.99944019	2.34519566	5.40548445	9.65805854	4.56478299	1.49158765	8.81498485	0.54327292	-0.41726201	5.53013438	-3.61439403	2.87317187	9.22043004	2.81617903	1.26135552	4.56483363	-2.30224034	8.55055023	0.27312283	1.05316624	12.28248796
3607	36.06000000	8.44264225	-1.41441740	5.24726182	7.67256844	2.43943150	5.13054222	9.29133028	5.27363005	1.54616768	9.27095285	0.01384958	-0.50672987	6.47699418	-3.65557023	2.79100441	9.24633780	2.54384974	1.33314781	4.35537827	-2.40837047	8.60216385	1.35036784	1.17181899	12.13862123
3608	36.07000000	8.39859828	-1.43658114	5.30329501	7.11625078	2.36380315	4.93473645	8.97035901	5.05048419	1.46816153	9.77557208	-0.67299929	-0.36991561	6.83187139	-3.29373487	3.22147239	8.66287487	2.56257508	1.66637772	4.35003215	-2.22242702	8.66754574	2.78761549	1.85245385	12.62905467
3609	36.08000000	8.37480196	-1.52107775	5.28265461	6.84599318	2.28837861	4.85855479	9.02233288	4.01219958	1.41753119	9.92714555	-1.16335202	-0.23863600	6.62712119	-2.85398994	3.81478292	8.23192416	2.85209322	1.91728172	4.72346976	-2.05627237	8.59338951	4.47708199	1.96034787	12.97057293
3610	36.09000000	8.36068626	-1.60813997	5.35203221	6.99111140	2.01867474	4.96300576	9.47221490	2.57226808	1.31450871	9.71291528	-1.36587550	-0.24115593	6.42253413	-2.42088500	4.22947747	8.00423192	3.33148524	1.92734485	4.39344256	-2.43189016	8.53247838	5.70323019	2.38158956	13.34495077
3611	36.10000000	8.34042923	-1.63470656	5.45571720	7.45437665	1.93323978	5.11145117	9.98421078	0.93117177	1.35582659	9.28353953	-1.49323234	-0.38236084	6.66276737	-2.29734988	4.06035482	7.72185567	3.77906999	2.32527569	4.48838530	-2.38630202	8.53694546	6.04054001	1.88257264	12.80023949
3612	36.11000000	8.44982568	-1.73000731	5.56057967	7.98414246	1.87096324	5.17717679	10.16164041	-0.56707129	1.51639520	8.86992446	-1.74529933	-0.65597393	7.39034843	-2.35491996	3.61786939	7.40461300	4.13357681	2.21545048	4.36513931	-2.54806541	8.55700540	5.95362358	1.81536467	12.33905724
3613	36.12000000	8.44467689	-1.76628863	5.75094309	8.24739101	1.67261018	5.07571494	10.19025042	-1.61740034	1.55112641	8.69014508	-2.01871422	-1.01667001	8.14288302	-2.58423225	3.11656540	7.16480326	4.14268430	1.84919208	4.46763334	-2.45835797	8.46562590	6.19106101	1.29331869	11.92739840
3614	36.13000000	8.40381733	-1.74565830	5.89855654	8.25112774	1.68972268	4.81657513	10.12391279	-2.04254472	1.56004092	8.60046752	-2.62291273	-1.29093646	8.71279089	-2.85047501	2.89602092	7.00041274	4.19366578	1.49472232	4.75637433	-2.14348428	8.58624848	6.47923625	1.07882655	11.87253706
3615	36.14000000	8.56853563	-1.71405191	5.96632093	8.14814058	1.72091615	4.62290843	9.85181408	-1.67582014	1.42095368	8.52945730	-3.31727930	-1.38915651	9.00363232	-3.07542895	2.99554381	6.94721603	4.07596543	0.83790880	4.40860079	-2.49265024	8.54952744	6.77567031	1.13895919	11.85710514
3616	36.15000000	8.72848243	-1.61518319	6.10485178	8.20018977	1.93494511	4.44497331	9.59974072	-0.79257184	1.32340265	8.62442742	-3.74512323	-1.38545181	8.88591961	-3.35134869	3.19918389	7.24798390	3.91685905	0.66778688	4.49864482	-2.54158942	8.49462463	7.23713469	1.12609352	11.74464749
3617	36.16000000	8.86932491	-1.46767200	6.20227511	8.36354501	2.08203874	4.28487204	9.52702190	0.10244424	0.97138810	8.70731837	-3.87375168	-1.25583284	8.88145777	-3.62717776	3.18113423	7.82812778	3.84489974	0.27506413	4.65139651	-2.41811078	8.47977116	7.78887805	1.18445668	11.50179291
3618	36.17000000	8.89627729	-1.34749167	6.22754396	8.44707794	2.27763631	4.30213357	9.60953931	0.95072777	0.80548162	8.71784878	-3.76615872	-1.17086506	8.90858544	-3.74880693	3.01527487	8.48531717	3.82507236	-0.22326490	4.72793181	-2.38812112	8.41415255	8.58105010	1.59852301	11.45590863
3619	36.18000000	8.91249585	-1.21985276	6.27079386	8.45827126	2.41642267	4.39470482	9.82619661	1.74996689	0.82347808	8.84498958	-3.13992690	-1.05478564	8.95764070	-3.69544161	2.79716399	8.62307580	3.46582209	-0.09788485	4.45815148	-2.46500066	8.57909729	9.38740183	1.86339402	11.39160922
3620	36.19000000	9.01719067	-1.21420549	6.27042188	8.55223027	2.64014908	4.42380985	10.00022114	2.40163559	0.98347422	9.02580814	-2.39498504	-0.93519558	9.02433694	-3.37875044	2.72581940	8.82374943	3.41716201	0.30444373	4.45297120	-2.51291961	8.57926651	10.53302196	2.31802010	11.47951300
